<?xml version="1.0" encoding="us-ascii" standalone="no"?><svg xmlns="http://www.w3.org/2000/svg" xmlns:xlink="http://www.w3.org/1999/xlink" contentStyleType="text/css" height="1010px" preserveAspectRatio="none" style="width:1053px;height:1010px;background:#F9F9F9;" version="1.1" viewBox="0 0 1053 1010" width="1053px" zoomAndPan="magnify"><defs/><g><rect fill="#F9F9F9" height="1010" style="stroke:none;stroke-width:1.0;" width="1053" x="0" y="0"/><text fill="#000000" font-family="sans-serif" font-size="14" font-weight="bold" lengthAdjust="spacing" textLength="357" x="349.5" y="29.5332">Sequence Diagram: API "&#1055;&#1077;&#1088;&#1077;&#1074;&#1086;&#1076; &#1080; &#1082;&#1086;&#1084;&#1084;&#1077;&#1085;&#1090;&#1072;&#1088;&#1080;&#1080;"</text><rect fill="#FFC0CB" height="785.4609" style="stroke:#393939;stroke-width:1.0;" width="10" x="53" y="132.2188"/><rect fill="#D8BFD8" height="344.7031" style="stroke:#393939;stroke-width:1.0;" width="10" x="322" y="196.2734"/><rect fill="#D8BFD8" height="284" style="stroke:#393939;stroke-width:1.0;" width="10" x="322" y="610.6797"/><rect fill="#DEB887" height="284" style="stroke:#393939;stroke-width:1.0;" width="10" x="555" y="226.625"/><rect fill="#DEB887" height="223.2969" style="stroke:#393939;stroke-width:1.0;" width="10" x="555" y="641.0313"/><rect fill="#87CEFA" height="162.5938" style="stroke:#393939;stroke-width:1.0;" width="10" x="860" y="256.9766"/><rect fill="#87CEFA" height="162.5938" style="stroke:#393939;stroke-width:1.0;" width="10" x="860" y="671.3828"/><rect fill="#ADD8E6" height="30.3516" style="stroke:#393939;stroke-width:1.0;" width="10" x="974" y="449.9219"/><rect fill="none" height="416.7578" rx="5" ry="5" style="stroke:#393939;stroke-width:1.0;" width="1037" x="10" y="139.2188"/><rect fill="none" height="277" rx="5" ry="5" style="stroke:#393939;stroke-width:1.0;" width="1017" x="20" y="271.9766"/><rect fill="none" height="339.7031" rx="5" ry="5" style="stroke:#393939;stroke-width:1.0;" width="931" x="10" y="569.9766"/><rect fill="none" height="216.2969" rx="5" ry="5" style="stroke:#393939;stroke-width:1.0;" width="911" x="20" y="686.3828"/><line style="stroke:#393939;stroke-width:0.5;stroke-dasharray:5.0,5.0;" x1="58" x2="58" y1="122.2188" y2="926.6797"/><line style="stroke:#393939;stroke-width:0.5;stroke-dasharray:5.0,5.0;" x1="326.5" x2="326.5" y1="122.2188" y2="926.6797"/><line style="stroke:#393939;stroke-width:0.5;stroke-dasharray:5.0,5.0;" x1="559.5" x2="559.5" y1="122.2188" y2="926.6797"/><line style="stroke:#393939;stroke-width:0.5;stroke-dasharray:5.0,5.0;" x1="865" x2="865" y1="122.2188" y2="926.6797"/><line style="stroke:#393939;stroke-width:0.5;stroke-dasharray:5.0,5.0;" x1="979" x2="979" y1="122.2188" y2="926.6797"/><text fill="#191919" font-family="sans-serif" font-size="14" font-weight="bold" lengthAdjust="spacing" text-decoration="underline" textLength="50" x="30" y="119.1426">&#1050;&#1083;&#1080;&#1077;&#1085;&#1090;</text><ellipse cx="58" cy="60.1094" fill="#FFC0CB" rx="16" ry="16" style="stroke:#191919;stroke-width:0.5;"/><path d="M58,80.1094 C62,80.1094 65,80.1094 69,76.1094 C77,76.1094 85,84.1094 85,92.1094 L85,96.1094 C85,100.1094 81,104.1094 77,104.1094 L39,104.1094 C35,104.1094 31,100.1094 31,96.1094 L31,92.1094 C31,84.1094 39,76.1094 47,76.1094 C51,80.1094 54,80.1094 58,80.1094 " fill="#FFC0CB" style="stroke:#191919;stroke-width:0.5;"/><text fill="#191919" font-family="sans-serif" font-size="14" font-weight="bold" lengthAdjust="spacing" text-decoration="underline" textLength="50" x="30" y="940.2129">&#1050;&#1083;&#1080;&#1077;&#1085;&#1090;</text><ellipse cx="58" cy="959.7891" fill="#FFC0CB" rx="16" ry="16" style="stroke:#191919;stroke-width:0.5;"/><path d="M58,979.7891 C62,979.7891 65,979.7891 69,975.7891 C77,975.7891 85,983.7891 85,991.7891 L85,995.7891 C85,999.7891 81,1003.7891 77,1003.7891 L39,1003.7891 C35,1003.7891 31,999.7891 31,995.7891 L31,991.7891 C31,983.7891 39,975.7891 47,975.7891 C51,979.7891 54,979.7891 58,979.7891 " fill="#FFC0CB" style="stroke:#191919;stroke-width:0.5;"/><rect fill="#D8BFD8" height="31.6094" rx="5" ry="5" style="stroke:#191919;stroke-width:1.5;" width="125" x="264.5" y="89.6094"/><text fill="#000000" font-family="sans-serif" font-size="14" font-weight="bold" lengthAdjust="spacing" text-decoration="underline" textLength="111" x="271.5" y="111.1426">&#1060;&#1088;&#1086;&#1085;&#1090;&#1077;&#1085;&#1076; (Vue)</text><rect fill="#D8BFD8" height="31.6094" rx="5" ry="5" style="stroke:#191919;stroke-width:1.5;" width="125" x="264.5" y="925.6797"/><text fill="#000000" font-family="sans-serif" font-size="14" font-weight="bold" lengthAdjust="spacing" text-decoration="underline" textLength="111" x="271.5" y="947.2129">&#1060;&#1088;&#1086;&#1085;&#1090;&#1077;&#1085;&#1076; (Vue)</text><rect fill="#DEB887" height="31.6094" rx="5" ry="5" style="stroke:#191919;stroke-width:1.5;" width="125" x="497.5" y="89.6094"/><text fill="#000000" font-family="sans-serif" font-size="14" font-weight="bold" lengthAdjust="spacing" text-decoration="underline" textLength="111" x="504.5" y="111.1426">&#1041;&#1101;&#1082;&#1077;&#1085;&#1076; (Go API)</text><rect fill="#DEB887" height="31.6094" rx="5" ry="5" style="stroke:#191919;stroke-width:1.5;" width="125" x="497.5" y="925.6797"/><text fill="#000000" font-family="sans-serif" font-size="14" font-weight="bold" lengthAdjust="spacing" text-decoration="underline" textLength="111" x="504.5" y="947.2129">&#1041;&#1101;&#1082;&#1077;&#1085;&#1076; (Go API)</text><rect fill="#87CEFA" height="31.6094" rx="5" ry="5" style="stroke:#191919;stroke-width:1.5;" width="112" x="809" y="89.6094"/><text fill="#000000" font-family="sans-serif" font-size="14" font-weight="bold" lengthAdjust="spacing" text-decoration="underline" textLength="98" x="816" y="111.1426">DeepSeek API</text><rect fill="#87CEFA" height="31.6094" rx="5" ry="5" style="stroke:#191919;stroke-width:1.5;" width="112" x="809" y="925.6797"/><text fill="#000000" font-family="sans-serif" font-size="14" font-weight="bold" lengthAdjust="spacing" text-decoration="underline" textLength="98" x="816" y="947.2129">DeepSeek API</text><text fill="#191919" font-family="sans-serif" font-size="14" font-weight="bold" lengthAdjust="spacing" text-decoration="underline" textLength="90" x="931" y="119.1426">&#1041;&#1072;&#1079;&#1072; &#1076;&#1072;&#1085;&#1085;&#1099;&#1093;</text><path d="M961,68.6094 C961,58.6094 979,58.6094 979,58.6094 C979,58.6094 997,58.6094 997,68.6094 L997,94.6094 C997,104.6094 979,104.6094 979,104.6094 C979,104.6094 961,104.6094 961,94.6094 L961,68.6094 " fill="#ADD8E6" style="stroke:#191919;stroke-width:1.5;"/><path d="M961,68.6094 C961,78.6094 979,78.6094 979,78.6094 C979,78.6094 997,78.6094 997,68.6094 " fill="none" style="stroke:#191919;stroke-width:1.5;"/><text fill="#191919" font-family="sans-serif" font-size="14" font-weight="bold" lengthAdjust="spacing" text-decoration="underline" textLength="90" x="931" y="940.2129">&#1041;&#1072;&#1079;&#1072; &#1076;&#1072;&#1085;&#1085;&#1099;&#1093;</text><path d="M961,953.2891 C961,943.2891 979,943.2891 979,943.2891 C979,943.2891 997,943.2891 997,953.2891 L997,979.2891 C997,989.2891 979,989.2891 979,989.2891 C979,989.2891 961,989.2891 961,979.2891 L961,953.2891 " fill="#ADD8E6" style="stroke:#191919;stroke-width:1.5;"/><path d="M961,953.2891 C961,963.2891 979,963.2891 979,963.2891 C979,963.2891 997,963.2891 997,953.2891 " fill="none" style="stroke:#191919;stroke-width:1.5;"/><rect fill="#FFC0CB" height="785.4609" style="stroke:#393939;stroke-width:1.0;" width="10" x="53" y="132.2188"/><rect fill="#D8BFD8" height="344.7031" style="stroke:#393939;stroke-width:1.0;" width="10" x="322" y="196.2734"/><rect fill="#D8BFD8" height="284" style="stroke:#393939;stroke-width:1.0;" width="10" x="322" y="610.6797"/><rect fill="#DEB887" height="284" style="stroke:#393939;stroke-width:1.0;" width="10" x="555" y="226.625"/><rect fill="#DEB887" height="223.2969" style="stroke:#393939;stroke-width:1.0;" width="10" x="555" y="641.0313"/><rect fill="#87CEFA" height="162.5938" style="stroke:#393939;stroke-width:1.0;" width="10" x="860" y="256.9766"/><rect fill="#87CEFA" height="162.5938" style="stroke:#393939;stroke-width:1.0;" width="10" x="860" y="671.3828"/><rect fill="#ADD8E6" height="30.3516" style="stroke:#393939;stroke-width:1.0;" width="10" x="974" y="449.9219"/><path d="M15,139.2188 L154,139.2188 L154,147.5703 L144,157.5703 L10,157.5703 L10,144.2188 A5,5 0 0 1 15,139.2188 " fill="#7CFC00" style="stroke:#393939;stroke-width:1.5;"/><rect fill="none" height="416.7578" rx="5" ry="5" style="stroke:#393939;stroke-width:1.0;" width="1037" x="10" y="139.2188"/><text fill="#191919" font-family="sans-serif" font-size="13" font-weight="bold" lengthAdjust="spacing" textLength="99" x="25" y="153.7139">POST /translate</text><polygon fill="#191919" points="310,192.2734,320,196.2734,310,200.2734,314,196.2734" style="stroke:#191919;stroke-width:1.0;"/><line style="stroke:#191919;stroke-width:1.0;" x1="63" x2="316" y1="196.2734" y2="196.2734"/><text fill="#000000" font-family="sans-serif" font-size="13" lengthAdjust="spacing" textLength="127" x="70" y="175.0654">&#1042;&#1089;&#1090;&#1072;&#1074;&#1080;&#1090;&#1100; &#1090;&#1077;&#1082;&#1089;&#1090; &#1087;&#1077;&#1089;&#1085;&#1080;</text><text fill="#000000" font-family="sans-serif" font-size="13" lengthAdjust="spacing" textLength="121" x="70" y="191.417">&#1053;&#1072;&#1078;&#1072;&#1090;&#1100; "&#1055;&#1077;&#1088;&#1077;&#1074;&#1077;&#1089;&#1090;&#1080;"</text><polygon fill="#191919" points="543,222.625,553,226.625,543,230.625,547,226.625" style="stroke:#191919;stroke-width:1.0;"/><line style="stroke:#191919;stroke-width:1.0;" x1="332" x2="549" y1="226.625" y2="226.625"/><text fill="#000000" font-family="sans-serif" font-size="13" lengthAdjust="spacing" textLength="157" x="339" y="221.7686">POST /api/translate {lyrics}</text><polygon fill="#191919" points="848,252.9766,858,256.9766,848,260.9766,852,256.9766" style="stroke:#191919;stroke-width:1.0;"/><line style="stroke:#191919;stroke-width:1.0;" x1="565" x2="854" y1="256.9766" y2="256.9766"/><text fill="#000000" font-family="sans-serif" font-size="13" lengthAdjust="spacing" textLength="104" x="572" y="252.1201">&#1047;&#1072;&#1087;&#1088;&#1086;&#1089; &#1087;&#1077;&#1088;&#1077;&#1074;&#1086;&#1076;&#1072;</text><path d="M25,271.9766 L81,271.9766 L81,280.3281 L71,290.3281 L20,290.3281 L20,276.9766 A5,5 0 0 1 25,271.9766 " fill="#D87093" style="stroke:#393939;stroke-width:1.5;"/><rect fill="none" height="277" rx="5" ry="5" style="stroke:#393939;stroke-width:1.0;" width="1017" x="20" y="271.9766"/><text fill="#191919" font-family="sans-serif" font-size="13" font-weight="bold" lengthAdjust="spacing" textLength="16" x="35" y="286.4717">alt</text><text fill="#393939" font-family="sans-serif" font-size="11" font-weight="bold" lengthAdjust="spacing" textLength="112" x="96" y="285.3955">[&#1058;&#1072;&#1081;&#1084;&#1072;&#1091;&#1090; DeepSeek]</text><polygon fill="#191919" points="576,308.6797,566,312.6797,576,316.6797,572,312.6797" style="stroke:#191919;stroke-width:1.0;"/><line style="stroke:#191919;stroke-width:1.0;stroke-dasharray:2.0,2.0;" x1="570" x2="859" y1="312.6797" y2="312.6797"/><text fill="#000000" font-family="sans-serif" font-size="13" lengthAdjust="spacing" textLength="108" x="582" y="307.8232">&#1054;&#1096;&#1080;&#1073;&#1082;&#1072; TIMEOUT</text><polygon fill="#191919" points="343,339.0313,333,343.0313,343,347.0313,339,343.0313" style="stroke:#191919;stroke-width:1.0;"/><line style="stroke:#191919;stroke-width:1.0;stroke-dasharray:2.0,2.0;" x1="337" x2="554" y1="343.0313" y2="343.0313"/><text fill="#000000" font-family="sans-serif" font-size="13" lengthAdjust="spacing" textLength="123" x="349" y="338.1748">408 Request Timeout</text><polygon fill="#191919" points="74,369.3828,64,373.3828,74,377.3828,70,373.3828" style="stroke:#191919;stroke-width:1.0;"/><line style="stroke:#191919;stroke-width:1.0;stroke-dasharray:2.0,2.0;" x1="68" x2="321" y1="373.3828" y2="373.3828"/><text fill="#000000" font-family="sans-serif" font-size="13" lengthAdjust="spacing" textLength="137" x="80" y="368.5264">&#1057;&#1086;&#1086;&#1073;&#1097;&#1077;&#1085;&#1080;&#1077; &#1086;&#1073; &#1086;&#1096;&#1080;&#1073;&#1082;&#1077;</text><line style="stroke:#393939;stroke-width:1.0;stroke-dasharray:2.0,2.0;" x1="20" x2="1037" y1="382.3828" y2="382.3828"/><text fill="#393939" font-family="sans-serif" font-size="11" font-weight="bold" lengthAdjust="spacing" textLength="41" x="25" y="393.8018">[&#1059;&#1089;&#1087;&#1077;&#1093;]</text><polygon fill="#191919" points="576,415.5703,566,419.5703,576,423.5703,572,419.5703" style="stroke:#191919;stroke-width:1.0;"/><line style="stroke:#191919;stroke-width:1.0;stroke-dasharray:2.0,2.0;" x1="570" x2="864" y1="419.5703" y2="419.5703"/><text fill="#000000" font-family="sans-serif" font-size="13" lengthAdjust="spacing" textLength="106" x="582" y="414.7139">&#1055;&#1077;&#1088;&#1077;&#1074;&#1086;&#1076; &#1073;&#1083;&#1086;&#1082;&#1072;&#1084;&#1080;</text><polygon fill="#191919" points="962,445.9219,972,449.9219,962,453.9219,966,449.9219" style="stroke:#191919;stroke-width:1.0;"/><line style="stroke:#191919;stroke-width:1.0;" x1="565" x2="968" y1="449.9219" y2="449.9219"/><text fill="#000000" font-family="sans-serif" font-size="13" lengthAdjust="spacing" textLength="211" x="572" y="445.0654">&#1057;&#1086;&#1093;&#1088;&#1072;&#1085;&#1077;&#1085;&#1080;&#1077; &#1073;&#1083;&#1086;&#1082;&#1086;&#1074; (&#1076;&#1077;&#1084;&#1086;/&#1080;&#1089;&#1090;&#1086;&#1088;&#1080;&#1103;)</text><polygon fill="#191919" points="576,476.2734,566,480.2734,576,484.2734,572,480.2734" style="stroke:#191919;stroke-width:1.0;"/><line style="stroke:#191919;stroke-width:1.0;stroke-dasharray:2.0,2.0;" x1="570" x2="978" y1="480.2734" y2="480.2734"/><text fill="#000000" font-family="sans-serif" font-size="13" lengthAdjust="spacing" textLength="19" x="582" y="475.417">OK</text><polygon fill="#191919" points="343,506.625,333,510.625,343,514.625,339,510.625" style="stroke:#191919;stroke-width:1.0;"/><line style="stroke:#191919;stroke-width:1.0;stroke-dasharray:2.0,2.0;" x1="337" x2="559" y1="510.625" y2="510.625"/><text fill="#000000" font-family="sans-serif" font-size="13" lengthAdjust="spacing" textLength="140" x="349" y="505.7686">200 OK {songId, blocks}</text><polygon fill="#191919" points="74,536.9766,64,540.9766,74,544.9766,70,540.9766" style="stroke:#191919;stroke-width:1.0;"/><line style="stroke:#191919;stroke-width:1.0;stroke-dasharray:2.0,2.0;" x1="68" x2="326" y1="540.9766" y2="540.9766"/><text fill="#000000" font-family="sans-serif" font-size="13" lengthAdjust="spacing" textLength="192" x="80" y="536.1201">&#1054;&#1090;&#1086;&#1073;&#1088;&#1072;&#1078;&#1077;&#1085;&#1080;&#1077; &#1086;&#1088;&#1080;&#1075;&#1080;&#1085;&#1072;&#1083;/&#1087;&#1077;&#1088;&#1077;&#1074;&#1086;&#1076;</text><path d="M15,569.9766 L147,569.9766 L147,578.3281 L137,588.3281 L10,588.3281 L10,574.9766 A5,5 0 0 1 15,569.9766 " fill="#6495ED" style="stroke:#393939;stroke-width:1.5;"/><rect fill="none" height="339.7031" rx="5" ry="5" style="stroke:#393939;stroke-width:1.0;" width="931" x="10" y="569.9766"/><text fill="#191919" font-family="sans-serif" font-size="13" font-weight="bold" lengthAdjust="spacing" textLength="92" x="25" y="584.4717">POST /explain</text><polygon fill="#191919" points="310,606.6797,320,610.6797,310,614.6797,314,610.6797" style="stroke:#191919;stroke-width:1.0;"/><line style="stroke:#191919;stroke-width:1.0;" x1="63" x2="316" y1="610.6797" y2="610.6797"/><text fill="#000000" font-family="sans-serif" font-size="13" lengthAdjust="spacing" textLength="84" x="70" y="605.8232">&#1050;&#1083;&#1080;&#1082; &#1087;&#1086; &#1073;&#1083;&#1086;&#1082;&#1091;</text><polygon fill="#191919" points="543,637.0313,553,641.0313,543,645.0313,547,641.0313" style="stroke:#191919;stroke-width:1.0;"/><line style="stroke:#191919;stroke-width:1.0;" x1="332" x2="549" y1="641.0313" y2="641.0313"/><text fill="#000000" font-family="sans-serif" font-size="13" lengthAdjust="spacing" textLength="204" x="339" y="636.1748">POST /api/explain {songId, blockId}</text><polygon fill="#191919" points="848,667.3828,858,671.3828,848,675.3828,852,671.3828" style="stroke:#191919;stroke-width:1.0;"/><line style="stroke:#191919;stroke-width:1.0;" x1="565" x2="854" y1="671.3828" y2="671.3828"/><text fill="#000000" font-family="sans-serif" font-size="13" lengthAdjust="spacing" textLength="132" x="572" y="666.5264">&#1047;&#1072;&#1087;&#1088;&#1086;&#1089; &#1082;&#1086;&#1084;&#1084;&#1077;&#1085;&#1090;&#1072;&#1088;&#1080;&#1077;&#1074;</text><path d="M25,686.3828 L81,686.3828 L81,694.7344 L71,704.7344 L20,704.7344 L20,691.3828 A5,5 0 0 1 25,686.3828 " fill="#D87093" style="stroke:#393939;stroke-width:1.5;"/><rect fill="none" height="216.2969" rx="5" ry="5" style="stroke:#393939;stroke-width:1.0;" width="911" x="20" y="686.3828"/><text fill="#191919" font-family="sans-serif" font-size="13" font-weight="bold" lengthAdjust="spacing" textLength="16" x="35" y="700.8779">alt</text><text fill="#393939" font-family="sans-serif" font-size="11" font-weight="bold" lengthAdjust="spacing" textLength="110" x="96" y="699.8018">[&#1054;&#1096;&#1080;&#1073;&#1082;&#1072; DeepSeek]</text><polygon fill="#191919" points="576,723.0859,566,727.0859,576,731.0859,572,727.0859" style="stroke:#191919;stroke-width:1.0;"/><line style="stroke:#191919;stroke-width:1.0;stroke-dasharray:2.0,2.0;" x1="570" x2="859" y1="727.0859" y2="727.0859"/><text fill="#000000" font-family="sans-serif" font-size="13" lengthAdjust="spacing" textLength="70" x="582" y="722.2295">&#1053;&#1077;&#1090; &#1076;&#1072;&#1085;&#1085;&#1099;&#1093;</text><polygon fill="#191919" points="343,753.4375,333,757.4375,343,761.4375,339,757.4375" style="stroke:#191919;stroke-width:1.0;"/><line style="stroke:#191919;stroke-width:1.0;stroke-dasharray:2.0,2.0;" x1="337" x2="554" y1="757.4375" y2="757.4375"/><text fill="#000000" font-family="sans-serif" font-size="13" lengthAdjust="spacing" textLength="99" x="349" y="752.5811">500 Internal Error</text><polygon fill="#191919" points="74,783.7891,64,787.7891,74,791.7891,70,787.7891" style="stroke:#191919;stroke-width:1.0;"/><line style="stroke:#191919;stroke-width:1.0;stroke-dasharray:2.0,2.0;" x1="68" x2="321" y1="787.7891" y2="787.7891"/><text fill="#000000" font-family="sans-serif" font-size="13" lengthAdjust="spacing" textLength="235" x="80" y="782.9326">&#1057;&#1086;&#1086;&#1073;&#1097;&#1077;&#1085;&#1080;&#1077; "&#1050;&#1086;&#1084;&#1084;&#1077;&#1085;&#1090;&#1072;&#1088;&#1080;&#1081; &#1085;&#1077; &#1087;&#1086;&#1083;&#1091;&#1095;&#1077;&#1085;"</text><line style="stroke:#393939;stroke-width:1.0;stroke-dasharray:2.0,2.0;" x1="20" x2="931" y1="796.7891" y2="796.7891"/><text fill="#393939" font-family="sans-serif" font-size="11" font-weight="bold" lengthAdjust="spacing" textLength="41" x="25" y="808.208">[&#1059;&#1089;&#1087;&#1077;&#1093;]</text><polygon fill="#191919" points="576,829.9766,566,833.9766,576,837.9766,572,833.9766" style="stroke:#191919;stroke-width:1.0;"/><line style="stroke:#191919;stroke-width:1.0;stroke-dasharray:2.0,2.0;" x1="570" x2="864" y1="833.9766" y2="833.9766"/><text fill="#000000" font-family="sans-serif" font-size="13" lengthAdjust="spacing" textLength="271" x="582" y="829.1201">&#1050;&#1086;&#1084;&#1084;&#1077;&#1085;&#1090;&#1072;&#1088;&#1080;&#1080; (&#1075;&#1088;&#1072;&#1084;&#1084;&#1072;&#1090;&#1080;&#1082;&#1072;, &#1082;&#1072;&#1085;&#1076;&#1079;&#1080;, &#1082;&#1091;&#1083;&#1100;&#1090;&#1091;&#1088;&#1072;)</text><polygon fill="#191919" points="343,860.3281,333,864.3281,343,868.3281,339,864.3281" style="stroke:#191919;stroke-width:1.0;"/><line style="stroke:#191919;stroke-width:1.0;stroke-dasharray:2.0,2.0;" x1="337" x2="559" y1="864.3281" y2="864.3281"/><text fill="#000000" font-family="sans-serif" font-size="13" lengthAdjust="spacing" textLength="129" x="349" y="859.4717">200 OK {explanations}</text><polygon fill="#191919" points="74,890.6797,64,894.6797,74,898.6797,70,894.6797" style="stroke:#191919;stroke-width:1.0;"/><line style="stroke:#191919;stroke-width:1.0;stroke-dasharray:2.0,2.0;" x1="68" x2="326" y1="894.6797" y2="894.6797"/><text fill="#000000" font-family="sans-serif" font-size="13" lengthAdjust="spacing" textLength="169" x="80" y="889.8232">&#1054;&#1090;&#1086;&#1073;&#1088;&#1072;&#1078;&#1077;&#1085;&#1080;&#1077; &#1082;&#1086;&#1084;&#1084;&#1077;&#1085;&#1090;&#1072;&#1088;&#1080;&#1077;&#1074;</text><!--SRC=[dLHTQnD157tVNt5DNcnhQHK5wODW-Y51fS74-kBBc8pjaibCd9rGYmYsfQYeYBu8WeeVFo1Lex6ryI_C_YFFp6xMRHi_weQ497FFlUUUU-uSCokynQd5T1IOq0XELNwhmsMTqrp8bZLhpT3vIfaAzetjnVTiptwq0_kPR9_i3hvznwjdz-8DsyLft_OBGH0rGzbcW5AKvgemRS9ws6RIK4Ssk1QXvBauhV1lNMd9DPsSpXsmkb6wQjR0YwtoIBNog5pM1INDh19AKx4aMBqP11v9XV5n-zBkWfWdEJvU81RHh0Wvc1GheMm6xHmt5_u1VGnyHu2Wq-DB7JwM0XVcgLXR2IFeT0ZtB7u2HLBC1ULK6y9AW9KwMgnTKwfn43Z7URlAUTC1qlZpPIfU2fTNJBMvLX8T7ZIOOJTOn9D2jck_sYxPp_Yo1wQFugqKE5TAWHuLf7rEJAIj1iiGkbsyn5Rb1SsvfCfYjKPJHZCP2MPuG7XIqEGvrws3fWtJ3DddyRgRD3pGZpVYn-H5sd5_alq1Vwo3J_-wjAyGymMES35vv_Gy7XvnXP0UHKf9aKmUb4bOiNRuYndT4Miwh4TtFRBaaL398VD2EOulKFk7cs6ydf3AJ6kx7is4ALQOu4kX4jnSuGsoxu3v1YTtuqsqCfo8ZtOFAaqcL97_TVm0Tjh6hBjKAr-UNxnQom8TiKIu6JezVPQkEFz7XcfXYwkEoU8MahXKQYHz2tu3knq_z0Q2Mydzn4TMhEV1NC04zZs4TfrjZM0uEUdo7LZMRQp0m356Z_rzRCyvpsGo3ZK4dNWB2Po_CaB390FxaOv3pHwI3QRW13VJWTl- -EbObXnfyumMBuuGoP-Scfx6ATs9b5mkDqxG3Q7gpNJGXxLAsdljAaAkUzvdloJpLz0dlFTmi3krV_o9WB8Hk7Uw2hEuSsuAjSgrRprn7h_T5YoKVzs6v6BPSIuRPFB4c_zgxhJCWSxBZQDwVDGrZ9P_v_MyV__iz5TGRsFVDJFIw6SmmB8qN4icQ5vhfO_Yym9aFCp_6pddUMNjBfRolZij76a5HgNjmxYVl6k- -stVSFEptHFaTmCtDoxMlliLRwBiOznVcovwx6_UzQEKp8HA_fzp_pJ3eML_0W00]--></g></svg>