<?xml version="1.0" encoding="us-ascii" standalone="no"?><svg xmlns="http://www.w3.org/2000/svg" xmlns:xlink="http://www.w3.org/1999/xlink" contentStyleType="text/css" height="697px" preserveAspectRatio="none" style="width:491px;height:697px;background:#F9F9F9;" version="1.1" viewBox="0 0 491 697" width="491px" zoomAndPan="magnify"><defs><linearGradient id="g1z32jj5awepv0" x1="0%" x2="100%" y1="0%" y2="100%"><stop offset="0%" stop-color="#FFB6C1"/><stop offset="100%" stop-color="#FFC0CB"/></linearGradient><linearGradient id="g1z32jj5awepv1" x1="0%" x2="100%" y1="0%" y2="100%"><stop offset="0%" stop-color="#FFA07A"/><stop offset="100%" stop-color="#FA8072"/></linearGradient><linearGradient id="g1z32jj5awepv2" x1="0%" x2="100%" y1="0%" y2="100%"><stop offset="0%" stop-color="#FFC0CB"/><stop offset="100%" stop-color="#FFB6C1"/></linearGradient><linearGradient id="g1z32jj5awepv3" x1="0%" x2="100%" y1="0%" y2="100%"><stop offset="0%" stop-color="#FA8072"/><stop offset="100%" stop-color="#FFA07A"/></linearGradient></defs><g><rect fill="#F9F9F9" height="697" style="stroke:none;stroke-width:1.0;" width="491" x="0" y="0"/><text fill="#000000" font-family="sans-serif" font-size="14" font-weight="bold" lengthAdjust="spacing" textLength="172" x="152.5" y="24.5332">Use Case Diagram (MVP)</text><!--cluster ???????--><g id="cluster_&#1057;&#1080;&#1089;&#1090;&#1077;&#1084;&#1072;"><rect fill="none" height="646" rx="12.5" ry="12.5" style="stroke:#393939;stroke-width:1.0;" width="325" x="160" y="45.6094"/><text fill="#000000" font-family="sans-serif" font-size="14" font-weight="bold" lengthAdjust="spacing" textLength="61" x="292" y="62.1426">&#1057;&#1080;&#1089;&#1090;&#1077;&#1084;&#1072;</text></g><g id="elem_UC1"><ellipse cx="322.5183" cy="108.713" fill="url(#g1z32jj5awepv0)" rx="121.0183" ry="26.6037" style="stroke:#181818;stroke-width:0.5;"/><text fill="#000000" font-family="sans-serif" font-size="14" lengthAdjust="spacing" textLength="207" x="219.0183" y="112.4415">[US-1.1] &#1055;&#1077;&#1088;&#1077;&#1074;&#1077;&#1089;&#1090;&#1080; &#1090;&#1077;&#1082;&#1089;&#1090; &#1087;&#1077;&#1089;&#1085;&#1080;</text></g><g id="elem_UC2"><ellipse cx="322.3935" cy="193.6881" fill="url(#g1z32jj5awepv0)" rx="105.8935" ry="23.5787" style="stroke:#181818;stroke-width:0.5;"/><text fill="#000000" font-family="sans-serif" font-size="14" lengthAdjust="spacing" textLength="174" x="235.3935" y="197.4166">[US-1.2] &#1055;&#1086;&#1076;&#1089;&#1074;&#1077;&#1090;&#1080;&#1090;&#1100; &#1073;&#1083;&#1086;&#1082;&#1080;</text></g><g id="elem_UC3"><ellipse cx="322.4823" cy="278.8058" fill="url(#g1z32jj5awepv0)" rx="121.4823" ry="26.6965" style="stroke:#181818;stroke-width:0.5;"/><text fill="#000000" font-family="sans-serif" font-size="14" lengthAdjust="spacing" textLength="208" x="218.4823" y="282.5344">[US-1.3] &#1055;&#1086;&#1082;&#1072;&#1079;&#1072;&#1090;&#1100; &#1082;&#1086;&#1084;&#1084;&#1077;&#1085;&#1090;&#1072;&#1088;&#1080;&#1080;</text></g><g id="elem_UC4"><ellipse cx="322.2982" cy="364.369" fill="url(#g1z32jj5awepv0)" rx="106.7982" ry="23.7596" style="stroke:#181818;stroke-width:0.5;"/><text fill="#000000" font-family="sans-serif" font-size="14" lengthAdjust="spacing" textLength="176" x="234.2982" y="368.0975">[US-1.4] &#1057;&#1086;&#1093;&#1088;&#1072;&#1085;&#1080;&#1090;&#1100; &#1072;&#1085;&#1072;&#1083;&#1080;&#1079;</text></g><g id="elem_UC5"><ellipse cx="322.4235" cy="455.7941" fill="url(#g1z32jj5awepv0)" rx="146.4235" ry="31.6847" style="stroke:#181818;stroke-width:0.5;"/><text fill="#000000" font-family="sans-serif" font-size="14" lengthAdjust="spacing" textLength="261" x="191.9235" y="459.5226">[US-1.5] &#1059;&#1076;&#1072;&#1083;&#1080;&#1090;&#1100; &#1089;&#1086;&#1093;&#1088;&#1072;&#1085;&#1105;&#1085;&#1085;&#1099;&#1081; &#1087;&#1077;&#1088;&#1077;&#1074;&#1086;&#1076;</text></g><g id="elem_UC7"><ellipse cx="322.4133" cy="550.392" fill="url(#g1z32jj5awepv0)" rx="129.4133" ry="28.2827" style="stroke:#181818;stroke-width:0.5;"/><text fill="#000000" font-family="sans-serif" font-size="14" lengthAdjust="spacing" textLength="225" x="209.9133" y="554.1205">[US-1.7] &#1055;&#1088;&#1086;&#1089;&#1084;&#1086;&#1090;&#1088;&#1077;&#1090;&#1100; &#1076;&#1077;&#1084;&#1086;-&#1087;&#1077;&#1089;&#1085;&#1080;</text></g><g id="elem_UC6"><ellipse cx="322.2518" cy="644.5597" fill="url(#g1z32jj5awepv1)" rx="140.2518" ry="30.4504" style="stroke:#181818;stroke-width:0.5;"/><text fill="#000000" font-family="sans-serif" font-size="14" lengthAdjust="spacing" textLength="248" x="198.2518" y="648.2883">[US-1.6] &#1056;&#1077;&#1076;&#1072;&#1082;&#1090;&#1080;&#1088;&#1086;&#1074;&#1072;&#1090;&#1100; &#1082;&#1086;&#1084;&#1084;&#1077;&#1085;&#1090;&#1072;&#1088;&#1080;&#1080;</text></g><!--entity User--><g id="elem_User"><ellipse cx="61" cy="298.6094" fill="url(#g1z32jj5awepv2)" rx="16" ry="16" style="stroke:#191919;stroke-width:0.5;"/><path d="M61,318.6094 C65,318.6094 68,318.6094 72,314.6094 C80,314.6094 88,322.6094 88,330.6094 L88,334.6094 C88,338.6094 84,342.6094 80,342.6094 L42,342.6094 C38,342.6094 34,338.6094 34,334.6094 L34,330.6094 C34,322.6094 42,314.6094 50,314.6094 C54,318.6094 57,318.6094 61,318.6094 " fill="url(#g1z32jj5awepv2)" style="stroke:#191919;stroke-width:0.5;"/><text fill="#191919" font-family="sans-serif" font-size="14" font-weight="bold" lengthAdjust="spacing" textLength="103" x="9.5" y="357.6426">&#1055;&#1086;&#1083;&#1100;&#1079;&#1086;&#1074;&#1072;&#1090;&#1077;&#1083;&#1100;</text></g><!--entity Admin--><g id="elem_Admin"><ellipse cx="61" cy="621.6094" fill="url(#g1z32jj5awepv3)" rx="16" ry="16" style="stroke:#191919;stroke-width:0.5;"/><path d="M61,641.6094 C65,641.6094 68,641.6094 72,637.6094 C80,637.6094 88,645.6094 88,653.6094 L88,657.6094 C88,661.6094 84,665.6094 80,665.6094 L42,665.6094 C38,665.6094 34,661.6094 34,657.6094 L34,653.6094 C34,645.6094 42,637.6094 50,637.6094 C54,641.6094 57,641.6094 61,641.6094 " fill="url(#g1z32jj5awepv3)" style="stroke:#191919;stroke-width:0.5;"/><text fill="#191919" font-family="sans-serif" font-size="14" font-weight="bold" lengthAdjust="spacing" textLength="110" x="6" y="680.6426">&#1040;&#1076;&#1084;&#1080;&#1085;&#1080;&#1089;&#1090;&#1088;&#1072;&#1090;&#1086;&#1088;</text></g><!--link User to UC1--><g id="link_User_UC1"><path d="M72.86,282.0294 C85.52,243.3294 110.24,185.5394 152,152.6094 C170.62,137.9294 187.8601,129.7551 210.8601,123.1951 " fill="none" id="User-to-UC1" style="stroke:#191919;stroke-width:1.0;"/><polygon fill="#191919" points="216.63,121.5494,206.878,120.1713,211.8217,122.9208,209.0723,127.8645,216.63,121.5494" style="stroke:#191919;stroke-width:1.0;"/></g><!--link User to UC2--><g id="link_User_UC2"><path d="M94.32,282.0194 C110.07,265.1094 130.29,246.5494 152,234.6094 C176.41,221.1894 199.3098,213.4416 226.1398,207.3316 " fill="none" id="User-to-UC2" style="stroke:#191919;stroke-width:1.0;"/><polygon fill="#191919" points="231.99,205.9994,222.3265,204.0976,227.1148,207.1096,224.1029,211.8979,231.99,205.9994" style="stroke:#191919;stroke-width:1.0;"/></g><!--link User to UC3--><g id="link_User_UC3"><path d="M112.65,313.2194 C144.66,307.9094 181.1306,301.8697 219.3506,295.5397 " fill="none" id="User-to-UC3" style="stroke:#191919;stroke-width:1.0;"/><polygon fill="#191919" points="225.27,294.5594,215.7374,292.0837,220.3372,295.3763,217.0445,299.9762,225.27,294.5594" style="stroke:#191919;stroke-width:1.0;"/></g><!--link User to UC4--><g id="link_User_UC4"><path d="M112.65,329.9994 C147.68,335.8094 189.2308,342.6879 230.0608,349.4579 " fill="none" id="User-to-UC4" style="stroke:#191919;stroke-width:1.0;"/><polygon fill="#191919" points="235.98,350.4394,227.7555,345.0211,231.0473,349.6215,226.4469,352.9133,235.98,350.4394" style="stroke:#191919;stroke-width:1.0;"/></g><!--link User to UC5--><g id="link_User_UC5"><path d="M96.93,361.4594 C112.45,377.1094 131.77,394.0594 152,405.6094 C172.25,417.1694 189.6851,424.4835 212.2551,431.5635 " fill="none" id="User-to-UC5" style="stroke:#191919;stroke-width:1.0;"/><polygon fill="#191919" points="217.98,433.3594,210.5898,426.849,213.2092,431.8628,208.1954,434.4822,217.98,433.3594" style="stroke:#191919;stroke-width:1.0;"/></g><!--link User to UC7--><g id="link_User_UC7"><path d="M71.16,361.2194 C82.86,402.9594 107.19,467.6794 152,504.6094 C169.29,518.8594 184.9069,526.9275 206.5369,533.7375 " fill="none" id="User-to-UC7" style="stroke:#191919;stroke-width:1.0;"/><polygon fill="#191919" points="212.26,535.5394,204.8767,529.0212,207.4908,534.0378,202.4742,536.652,212.26,535.5394" style="stroke:#191919;stroke-width:1.0;"/></g><!--link Admin to UC6--><g id="link_Admin_UC6"><path d="M116.08,644.6094 C135.54,644.6094 152.49,644.6094 175.87,644.6094 " fill="none" id="Admin-to-UC6" style="stroke:#191919;stroke-width:1.0;"/><polygon fill="#191919" points="181.87,644.6094,172.87,640.6094,176.87,644.6094,172.87,648.6094,181.87,644.6094" style="stroke:#191919;stroke-width:1.0;"/></g><!--SRC=[XPBFIiD04CRl-nHZUz52bVw_2Q971Q7eHJmixLg3JIAR5H4Hgk193_e4Ahv0b0PZREChJDx8sTrO0a9COBEpsVdjjz_CaZeMhW2Nou0fHuq5x0K2DZaDMmuVIUx2yix-xWeRYoC5oWVfZ8uL31qf1ihnFSQ24ySxvNgZzC-yuS2Ndf3Gx1H-y87oPLzT49sVYy1t1MDc3Igr6ZvXYb_PFNxGznt3x0OZ7TTg5U21bYEXkkju9slR-cWzAoG_u1Hd6ECSu-mwkyac1f1capnzO-Ww7bJxVEpwdYNOEMFw1jmRaQWAljXqEdc6OGKk6T2pVB3NhpTM6uT06YD2HwGlCljYC9iJ7G1-wrKjOSKetcn0TQ5rpGWku9e6b-AKKZIEOAJx7l0DlsWvML2QPPHMJaam9ED2IqXeOKPlX7F2XgGuNj1QPRGsqLx8jLljd_7IyFGq95KnVkIKTXcbGvHNgeT9CGIwuWAQFH9jdjtXfpNCsaa-vEXE6RgdhqifAH5dDEf2HrRar1GjhV-fGgyCs2NWCsLgjOcfmUIt_VvpifjpyvxAs-cACTEgzVgwxe1Yq2m6hMBGBWQTOj1ZjdDjr6K_]--></g></svg>